<svg viewBox="0 0 512.2508 519.2006" xmlns="http://www.w3.org/2000/svg"><path d="M152.3 266.6006c1.1006-4.2002 3.2998-8.1006 6.4004-11.2002l246.6-246.7c9.7998-9.7998 25.6006-9.7998 35.4004 0l64.2002 63.7998c9.7998 9.8008 9.7998 25.6006 0 35.4004l-246.7 246.7c-3.9004 3.8994-9 6.3994-14.5 7.0996l-84 22.5c-2.2002 0.6006-4.2998 0.9004-6.5 0.9004-6.6006 0-12.9004-2.5-17.7002-7.2998-6.2998-6.3008-8.7998-15.5-6.5-24.1006z m46.5 19.400000000000034l-10.3994 38.8008 39.2998-10.5 224-223.9-28.6006-28.5996z m288.2 56.099999999999966c13.7998 0 25 11.2002 25 25v122.1c0 13.7998-11.2002 25-25 25h-462c-13.7998 0-25-11.2002-25-25v-462.8c0-13.7998 11.2002-25 25-25h120.3c13.7998 0 25 11.2002 25 25s-11.2002 25-25 25h-95.2998v412.8h412v-97.0996c0-13.7998 11.2002-25 25-25z"/></svg>